<svg width="86" height="86" viewBox="0 0 86 86" fill="none" xmlns="http://www.w3.org/2000/svg">
<circle cx="43" cy="43" r="36" fill="#EFAC00"/>
<path d="M42.9998 7.16675C23.2413 7.16675 7.1665 23.2416 7.1665 43.0001C7.1665 62.7586 23.2413 78.8334 42.9998 78.8334C62.7583 78.8334 78.8332 62.7586 78.8332 43.0001C78.8332 23.2416 62.7583 7.16675 42.9998 7.16675ZM42.9998 71.6667C27.1938 71.6667 14.3332 58.8062 14.3332 43.0001C14.3332 27.194 27.1938 14.3334 42.9998 14.3334C58.8059 14.3334 71.6665 27.194 71.6665 43.0001C71.6665 58.8062 58.8059 71.6667 42.9998 71.6667Z" fill="#EFAC00"/>
<path fill-rule="evenodd" clip-rule="evenodd" d="M29.25 33.125H34.125L54.75 25.625V55.625L34.125 48.125H29.25C26.7647 48.125 24.75 46.1103 24.75 43.625V37.625C24.75 35.1397 26.7647 33.125 29.25 33.125Z" stroke="white" stroke-width="2" stroke-linecap="round" stroke-linejoin="round"/>
<path fill-rule="evenodd" clip-rule="evenodd" d="M54.75 33.125C59.1944 33.75 62.25 36.25 62.25 40.625C62.25 45 59.1944 47.5 54.75 48.125V33.125Z" stroke="white" stroke-width="2" stroke-linecap="round" stroke-linejoin="round"/>
<path d="M34.125 46.25V35" stroke="white" stroke-width="2" stroke-linecap="round" stroke-linejoin="round"/>
<path d="M34.125 59.375L28.5 48.125" stroke="white" stroke-width="2" stroke-linecap="round" stroke-linejoin="round"/>
</svg>
