<svg width="86" height="86" viewBox="0 0 86 86" fill="none" xmlns="http://www.w3.org/2000/svg">
<circle cx="43" cy="43" r="36" fill="#EFAC00"/>
<path d="M43 7.16675C23.2415 7.16675 7.16663 23.2416 7.16663 43.0001C7.16663 62.7586 23.2415 78.8334 43 78.8334C62.7585 78.8334 78.8333 62.7586 78.8333 43.0001C78.8333 23.2416 62.7585 7.16675 43 7.16675ZM43 71.6667C27.1939 71.6667 14.3333 58.8062 14.3333 43.0001C14.3333 27.194 27.1939 14.3334 43 14.3334C58.806 14.3334 71.6666 27.194 71.6666 43.0001C71.6666 58.8062 58.806 71.6667 43 71.6667Z" fill="#EFAC00"/>
<path d="M43.455 62.3L43.095 62.165C33.645 59.105 27.345 50.375 27.345 40.43V27.29L43.41 22.655L59.52 27.29V40.43C59.52 50.375 53.22 59.105 43.815 62.165L43.455 62.3ZM29.595 29.045V40.475C29.595 49.295 35.13 57.08 43.455 59.96C51.735 57.08 57.27 49.295 57.27 40.475V29.045L43.41 25.04L29.595 29.045Z" fill="white"/>
</svg>
