<svg width="86" height="86" viewBox="0 0 86 86" fill="none" xmlns="http://www.w3.org/2000/svg">
<circle cx="43" cy="43" r="36" fill="#EFAC00"/>
<path d="M42.9998 7.16675C23.2413 7.16675 7.1665 23.2416 7.1665 43.0001C7.1665 62.7586 23.2413 78.8334 42.9998 78.8334C62.7583 78.8334 78.8332 62.7586 78.8332 43.0001C78.8332 23.2416 62.7583 7.16675 42.9998 7.16675ZM42.9998 71.6667C27.1938 71.6667 14.3332 58.8062 14.3332 43.0001C14.3332 27.194 27.1938 14.3334 42.9998 14.3334C58.8059 14.3334 71.6665 27.194 71.6665 43.0001C71.6665 58.8062 58.8059 71.6667 42.9998 71.6667Z" fill="#EFAC00"/>
<path d="M64.7636 58.7988L54.4399 48.4744C52.9017 50.8667 50.8659 52.9013 48.4736 54.4397L58.7982 64.7641C60.4464 66.412 63.1188 66.412 64.7635 64.7641C66.4119 63.119 66.4119 60.4466 64.7636 58.7988Z" fill="white"/>
<path d="M54.7501 37.875C54.7501 28.556 47.1943 21 37.8751 21C28.5561 21 21 28.556 21 37.875C21 47.1939 28.5561 54.7496 37.8751 54.7496C47.1943 54.7496 54.7501 47.1939 54.7501 37.875ZM37.8751 50.5307C30.896 50.5307 25.2189 44.8541 25.2189 37.8751C25.2189 30.896 30.896 25.219 37.8751 25.219C44.8541 25.219 50.5316 30.896 50.5316 37.8751C50.5316 44.8541 44.8541 50.5307 37.8751 50.5307Z" fill="white"/>
<path d="M28.0312 37.8749H30.8434C30.8434 33.9979 33.998 30.8437 37.8748 30.8437V28.0312C32.4478 28.0312 28.0312 32.4477 28.0312 37.8749Z" fill="white"/>
</svg>
