<svg width="90" height="87" viewBox="0 0 90 87" fill="none" xmlns="http://www.w3.org/2000/svg">
<circle cx="45" cy="43" r="36" fill="#EFAC00"/>
<path d="M45.0001 7.16675C25.2416 7.16675 9.16675 23.2416 9.16675 43.0001C9.16675 62.7586 25.2416 78.8334 45.0001 78.8334C64.7586 78.8334 80.8334 62.7586 80.8334 43.0001C80.8334 23.2416 64.7586 7.16675 45.0001 7.16675ZM45.0001 71.6667C29.194 71.6667 16.3334 58.8062 16.3334 43.0001C16.3334 27.194 29.194 14.3334 45.0001 14.3334C60.8062 14.3334 73.6667 27.194 73.6667 43.0001C73.6667 58.8062 60.8062 71.6667 45.0001 71.6667Z" fill="#EFAC00"/>
<path d="M45.6618 20C33.3515 20 23.3369 30.0153 23.3369 42.3249C23.3369 54.6345 33.3515 64.6505 45.6618 64.6505C57.9721 64.6505 67.9868 54.6352 67.9868 42.3256C67.9868 30.016 57.9729 20 45.6618 20ZM30.9679 55.0262C28.8508 52.5807 27.325 49.6121 26.6339 46.3334C26.7935 46.2976 26.9517 46.2477 27.0944 46.1548C28.0169 45.5649 29.7206 44.9166 30.3914 45.2823C30.7521 45.4798 30.9672 46.2266 30.9672 47.2784V55.0262H30.9679ZM45.6618 61.7727C41.1949 61.7727 37.0879 60.2434 33.8001 57.7016C33.8135 57.6249 33.8444 57.5553 33.8444 57.4759V47.2784C33.8444 45.0312 33.1476 43.5104 31.7737 42.758C29.8844 41.7259 27.4685 42.7004 26.2654 43.3227C26.2493 42.9908 26.2148 42.6624 26.2148 42.3256C26.2148 31.6016 34.9385 22.8779 45.6618 22.8779C56.3852 22.8779 65.1096 31.6016 65.1096 42.3249C65.1096 53.0483 56.3859 61.7727 45.6618 61.7727Z" fill="white"/>
<path d="M63.086 35.9743C62.8118 34.9815 61.8126 34.1258 59.9226 32.5733C58.8841 31.7211 56.7255 29.9485 56.568 29.2651C56.2924 27.4742 54.5993 25.6433 44.1382 25.6433L43.1426 25.6489C42.9752 25.651 42.8072 25.682 42.6504 25.7417C42.4387 25.8212 37.4993 27.7372 36.8693 32.3736C36.5121 34.9808 36.4896 35.71 36.4959 35.8513C36.4959 38.3959 38.2945 43.2081 45.1001 43.2081C45.6098 43.2081 46.14 43.1807 46.6905 43.1265C47.4155 44.7465 48.0743 46.5339 48.0743 47.173C48.0743 47.3108 48.0954 47.4493 48.1341 47.5822C48.5405 48.9505 49.0805 51.5746 48.8076 52.7924C48.7795 52.9182 48.7676 53.0476 48.7739 53.1763C48.8773 55.3236 49.9411 57.4907 52.087 57.4907C53.468 57.4907 54.934 56.5646 56.7009 54.5762C56.8387 54.4222 56.94 54.2387 57.0019 54.0397C57.3105 53.0244 59.9163 44.2283 59.0311 39.4063C59.133 39.085 59.2694 38.6019 59.3911 38.0106C59.5169 38.0331 59.6477 38.0563 59.7729 38.0816C60.2566 38.1709 60.7537 38.2651 61.2009 38.2651H61.2023C62.0883 38.2651 62.5685 37.8777 62.8167 37.5521C63.0101 37.2983 63.3019 36.7541 63.086 35.9743ZM56.7009 36.6648C56.5406 37.8932 56.2003 38.791 56.1996 38.796C56.0941 39.0695 56.0744 39.3683 56.1419 39.6531C56.9196 42.8755 55.1843 50.0249 54.3391 52.8964C52.9237 54.4342 52.2473 54.5945 52.1123 54.6107C51.9274 54.4349 51.72 53.7739 51.6588 53.1925C52.0357 51.0353 51.1863 47.7967 50.9423 46.9375C50.8094 45.0587 49.1803 41.6303 48.8435 40.937C48.5672 40.3696 47.9533 40.0468 47.3318 40.1446C46.538 40.2669 45.7877 40.3288 45.1001 40.3288C39.6066 40.3288 39.3816 36.2978 39.3731 35.84C39.3731 35.8154 39.3844 35.2213 39.7183 32.761C40.0594 30.2565 42.6876 28.877 43.4555 28.5247L44.1375 28.5205C51.9091 28.5205 53.5137 29.6082 53.7415 29.8079C54.0417 31.3675 55.6687 32.8039 58.0966 34.7973C58.2028 34.8852 58.3188 34.9794 58.4362 35.0771C57.2993 35.2065 56.7895 35.987 56.7009 36.6648Z" fill="white"/>
</svg>
