<svg width="89" height="86" viewBox="0 0 89 86" fill="none" xmlns="http://www.w3.org/2000/svg">
<circle cx="44" cy="43" r="36" fill="#EFAC00"/>
<path d="M44 7.16675C24.2415 7.16675 8.16663 23.2416 8.16663 43.0001C8.16663 62.7586 24.2415 78.8334 44 78.8334C63.7585 78.8334 79.8333 62.7586 79.8333 43.0001C79.8333 23.2416 63.7585 7.16675 44 7.16675ZM44 71.6667C28.1939 71.6667 15.3333 58.8062 15.3333 43.0001C15.3333 27.194 28.1939 14.3334 44 14.3334C59.806 14.3334 72.6666 27.194 72.6666 43.0001C72.6666 58.8062 59.806 71.6667 44 71.6667Z" fill="#EFAC00"/>
<path d="M54.8125 42.5C59.4724 42.5 63.25 46.2776 63.25 50.9375C63.25 55.5974 59.4724 59.375 54.8125 59.375C50.7985 59.375 47.4389 56.5719 46.585 52.8163H42.4152C41.5611 56.5719 38.2018 59.375 34.1876 59.375C29.5277 59.375 25.7501 55.5974 25.7501 50.9375C25.7501 46.2776 29.5277 42.5 34.1876 42.5C38.5308 42.5 42.1075 45.7816 42.5736 50.0006H46.4266C46.8927 45.7816 50.4694 42.5 54.8125 42.5ZM34.1876 45.3125C31.081 45.3125 28.5626 47.8308 28.5626 50.9375C28.5626 54.0442 31.081 56.5625 34.1876 56.5625C37.2942 56.5625 39.8126 54.0442 39.8126 50.9375C39.8126 47.8308 37.2942 45.3125 34.1876 45.3125ZM54.8125 45.3125C51.706 45.3125 49.1875 47.8308 49.1875 50.9375C49.1875 54.0442 51.706 56.5625 54.8125 56.5625C57.9192 56.5625 60.4375 54.0442 60.4375 50.9375C60.4375 47.8308 57.9192 45.3125 54.8125 45.3125ZM44.5 37.3438C50.8551 37.3438 56.7439 37.9804 62.1659 39.2561C62.9219 39.434 63.3906 40.1911 63.2127 40.9471C63.0347 41.7031 62.2778 42.1717 61.5218 41.9939C56.3187 40.7696 50.6451 40.1562 44.5 40.1562C38.3551 40.1562 32.6815 40.7696 27.4784 41.9939C26.7224 42.1717 25.9654 41.7031 25.7875 40.9471C25.6096 40.1911 26.0782 39.434 26.8342 39.2561C32.2561 37.9804 38.1451 37.3438 44.5 37.3438ZM51.4381 26.0938C53.3558 26.0938 55.1044 27.1568 55.9934 28.8342L56.1499 29.1559L58.9101 35.3664C59.2255 36.0761 58.906 36.9071 58.1963 37.2225C57.5457 37.5117 56.7931 37.2672 56.4293 36.6778L56.3401 36.5086L53.5799 30.2981C53.2379 29.5287 52.513 29.0079 51.6882 28.9196L51.4381 28.9062H37.5621C36.7201 28.9062 35.9499 29.3571 35.5342 30.0749L35.4204 30.2981L32.6601 36.5086C32.3447 37.2183 31.5137 37.538 30.8039 37.2225C30.1534 36.9334 29.8306 36.211 30.0243 35.546L30.09 35.3664L32.8503 29.1559C33.6292 27.4033 35.3107 26.2372 37.2047 26.1061L37.5621 26.0938H51.4381Z" fill="white"/>
</svg>
