<svg width="86" height="86" viewBox="0 0 86 86" fill="none" xmlns="http://www.w3.org/2000/svg">
<circle cx="43" cy="43" r="36" fill="#EFAC00"/>
<path d="M43.0001 7.16675C23.2416 7.16675 7.16675 23.2416 7.16675 43.0001C7.16675 62.7586 23.2416 78.8334 43.0001 78.8334C62.7586 78.8334 78.8334 62.7586 78.8334 43.0001C78.8334 23.2416 62.7586 7.16675 43.0001 7.16675ZM43.0001 71.6667C27.194 71.6667 14.3334 58.8062 14.3334 43.0001C14.3334 27.194 27.194 14.3334 43.0001 14.3334C58.8062 14.3334 71.6667 27.194 71.6667 43.0001C71.6667 58.8062 58.8062 71.6667 43.0001 71.6667Z" fill="#EFAC00"/>
<path d="M65.2969 62.8906H63.8906V64.2969H65.2969V62.8906Z" fill="white"/>
<path d="M23.1094 62.8906H21.7031V64.2969H23.1094V62.8906Z" fill="white"/>
<path d="M48.4219 20.7031C44.5048 20.7031 41.1255 23.008 39.5414 26.3281H34.3594V31.9531H35.7656V34.7656H25.9219C25.1463 34.7656 24.5156 35.3963 24.5156 36.1719V37.5781C24.5156 38.3537 25.1463 38.9844 25.9219 38.9844V62.8906H24.5156V64.2969H62.4844V62.8906H61.0781V31.9531H62.4844V26.3281H57.3023C55.7182 23.008 52.339 20.7031 48.4219 20.7031ZM56.8594 30.5469C56.8594 33.3699 55.4609 35.8674 53.3255 37.3995C53.2334 36.3209 52.3362 35.4688 51.2344 35.4688C50.4588 35.4688 49.8281 34.838 49.8281 34.0625C49.8281 33.287 50.4588 32.6562 51.2344 32.6562C52.3699 32.6562 53.3909 32.0255 53.8985 31.0095L54.0469 30.7128C54.3148 30.177 54.8534 29.8438 55.4531 29.8438C55.9425 29.8438 56.4157 29.9809 56.8432 30.2305C56.8474 30.3359 56.8594 30.44 56.8594 30.5469ZM54.6769 24.9043C54.6291 24.9071 54.5813 24.9219 54.5334 24.9219C53.0941 24.9219 51.8187 25.786 51.2843 27.122C50.9651 27.9214 50.2022 28.4375 49.3416 28.4375H46.5832C46.046 28.4375 45.6094 28.0009 45.6094 27.4637C45.6094 27.0636 45.8498 26.7078 46.2211 26.5595L46.8377 26.3127C48.2278 25.7572 49.125 24.4318 49.125 22.9348C49.125 22.6662 49.1791 22.4054 49.2783 22.153C51.4151 22.3688 53.3114 23.3919 54.6769 24.9043ZM47.8179 22.1403C47.7574 22.4019 47.7188 22.6677 47.7188 22.9348C47.7188 23.8531 47.1682 24.6666 46.316 25.007L45.6994 25.2537C44.7902 25.6173 44.2031 26.4849 44.2031 27.4637C44.2031 28.7757 45.2712 29.8438 46.5832 29.8438H49.3416C50.7809 29.8438 52.0563 28.9796 52.5907 27.6437C52.9099 26.8442 53.6728 26.3281 54.5334 26.3281C54.8984 26.3281 55.2584 26.2655 55.612 26.1545C56.0733 26.9061 56.4199 27.7337 56.6273 28.6161C56.2477 28.5036 55.8546 28.4375 55.4531 28.4375C54.3176 28.4375 53.2966 29.0682 52.789 30.0842L52.6406 30.3809C52.3727 30.9167 51.8341 31.25 51.2344 31.25C49.6833 31.25 48.4219 32.5114 48.4219 34.0625C48.4219 35.6136 49.6833 36.875 51.2344 36.875C51.6225 36.875 51.9375 37.19 51.9375 37.5781C51.9375 37.7736 51.9565 37.9747 51.9902 38.1814C50.9046 38.6912 49.698 38.9844 48.4219 38.9844C47.4305 38.9844 46.4827 38.8037 45.5981 38.488C45.6417 38.4275 45.693 38.3677 45.7338 38.3073C46.572 37.0487 47.0156 35.5855 47.0156 34.0745V33.3277C47.0156 32.1816 46.084 31.25 44.9379 31.25C43.7573 31.25 42.7969 30.2895 42.7969 29.109C42.7969 28.5627 42.6675 28.0135 42.4228 27.522L42.1859 27.0481C41.9791 26.6354 41.7042 26.2494 41.3984 25.8795C42.8067 23.7673 45.1418 22.3309 47.8179 22.1403ZM40.6615 27.2387C40.755 27.3835 40.852 27.527 40.928 27.6774L41.1642 28.1506C41.3126 28.4473 41.3906 28.7785 41.3906 29.109C41.3906 31.0651 42.9818 32.6562 44.9379 32.6562C45.3077 32.6562 45.6094 32.9579 45.6094 33.3277V34.0745C45.6094 35.307 45.2473 36.5009 44.5631 37.5282C44.4823 37.6498 44.3909 37.7715 44.2875 37.8945C41.7225 36.4454 39.9844 33.6976 39.9844 30.5469C39.9844 29.3734 40.2262 28.2554 40.6615 27.2387ZM35.7656 27.7344H38.993C38.7258 28.6266 38.5781 29.5695 38.5781 30.5469H35.7656V27.7344ZM35.7656 44.6094H30.1406V41.7969H35.7656V44.6094ZM30.1406 46.0156H35.7656V48.8281H30.1406V46.0156ZM30.1406 50.2344H35.7656V53.0469H30.1406V50.2344ZM30.1406 54.4531H35.7656V57.2656H30.1406V54.4531ZM25.9219 36.1719H35.7656V37.5781H25.9219V36.1719ZM27.3281 38.9844H35.7656V40.3906H28.7344V58.6719H35.7656V62.8906H27.3281V38.9844ZM54.0469 62.8906H49.125V51.6406H54.0469V62.8906ZM47.7188 62.8906H42.7969V51.6406H47.7188V62.8906ZM59.6719 62.8906H55.4531V50.2344H41.3906V62.8906H37.1719V31.9531H38.6906C39.3769 36.7154 43.4726 40.3906 48.4219 40.3906C53.3712 40.3906 57.4676 36.7154 58.1531 31.9531H59.6719V62.8906ZM61.0781 27.7344V30.5469H58.2656C58.2656 29.5695 58.118 28.6266 57.8508 27.7344H61.0781Z" fill="white"/>
<path d="M39.2812 41.7969V48.8281H57.5625V41.7969H39.2812ZM56.1562 44.6094H53.3438V43.2031H56.1562V44.6094ZM47.7188 46.0156V47.4219H44.9062V46.0156H47.7188ZM44.9062 44.6094V43.2031H47.7188V44.6094H44.9062ZM49.125 46.0156H51.9375V47.4219H49.125V46.0156ZM49.125 44.6094V43.2031H51.9375V44.6094H49.125ZM43.5 43.2031V44.6094H40.6875V43.2031H43.5ZM40.6875 46.0156H43.5V47.4219H40.6875V46.0156ZM53.3438 47.4219V46.0156H56.1562V47.4219H53.3438Z" fill="white"/>
<path d="M51.9375 55.8594H50.5312V57.2656H51.9375V55.8594Z" fill="white"/>
<path d="M46.3125 55.8594H44.9062V57.2656H46.3125V55.8594Z" fill="white"/>
</svg>
