<svg width="86" height="86" viewBox="0 0 86 86" fill="none" xmlns="http://www.w3.org/2000/svg">
<circle cx="43" cy="43" r="36" fill="#EFAC00"/>
<path d="M43.0001 7.16675C23.2416 7.16675 7.16675 23.2416 7.16675 43.0001C7.16675 62.7586 23.2416 78.8334 43.0001 78.8334C62.7586 78.8334 78.8334 62.7586 78.8334 43.0001C78.8334 23.2416 62.7586 7.16675 43.0001 7.16675ZM43.0001 71.6667C27.194 71.6667 14.3334 58.8062 14.3334 43.0001C14.3334 27.194 27.194 14.3334 43.0001 14.3334C58.8062 14.3334 71.6667 27.194 71.6667 43.0001C71.6667 58.8062 58.8062 71.6667 43.0001 71.6667Z" fill="#EFAC00"/>
<path d="M43.5 36.1719C41.1359 36.1719 38.8249 36.8729 36.8592 38.1863C34.8935 39.4998 33.3615 41.3666 32.4568 43.5507C31.5521 45.7349 31.3153 48.1383 31.7766 50.4569C32.2378 52.7756 33.3762 54.9055 35.0479 56.5771C36.7195 58.2488 38.8494 59.3872 41.1681 59.8484C43.4867 60.3097 45.8901 60.0729 48.0743 59.1682C50.2584 58.2635 52.1252 56.7315 53.4387 54.7658C54.7521 52.8001 55.4531 50.4891 55.4531 48.125C55.4496 44.9559 54.1891 41.9176 51.9482 39.6768C49.7074 37.4359 46.6691 36.1754 43.5 36.1719ZM43.5 58.6719C41.414 58.6719 39.3749 58.0533 37.6405 56.8944C35.9061 55.7355 34.5542 54.0883 33.756 52.1611C32.9577 50.2339 32.7488 48.1133 33.1558 46.0674C33.5627 44.0215 34.5672 42.1422 36.0422 40.6672C37.5172 39.1922 39.3965 38.1877 41.4424 37.7808C43.4883 37.3738 45.6089 37.5827 47.5361 38.381C49.4633 39.1792 51.1105 40.531 52.2694 42.2655C53.4283 43.9999 54.0469 46.039 54.0469 48.125C54.0437 50.9212 52.9315 53.602 50.9543 55.5793C48.977 57.5565 46.2962 58.6687 43.5 58.6719Z" fill="white"/>
<path d="M46.3126 53.047H44.2032V42.5001C44.2032 42.3802 44.1726 42.2623 44.1142 42.1576C44.0559 42.0529 43.9717 41.9649 43.8697 41.9019C43.7678 41.8389 43.6514 41.803 43.5316 41.7976C43.4119 41.7922 43.2928 41.8175 43.1856 41.8711L40.3731 43.2774C40.2905 43.3187 40.2168 43.3759 40.1563 43.4456C40.0958 43.5154 40.0496 43.5964 40.0205 43.684C39.9913 43.7716 39.9796 43.8641 39.9861 43.9562C39.9927 44.0483 40.0173 44.1382 40.0586 44.2208C40.0999 44.3034 40.1571 44.3771 40.2269 44.4376C40.2966 44.4981 40.3776 44.5443 40.4652 44.5735C40.5528 44.6027 40.6453 44.6143 40.7375 44.6078C40.8296 44.6012 40.9195 44.5766 41.0021 44.5353L42.7969 43.6379V53.047H40.6876C40.5011 53.047 40.3223 53.121 40.1904 53.2529C40.0585 53.3848 39.9844 53.5636 39.9844 53.7501C39.9844 53.9366 40.0585 54.1154 40.1904 54.2473C40.3223 54.3791 40.5011 54.4532 40.6876 54.4532H46.3126C46.4991 54.4532 46.6779 54.3791 46.8098 54.2473C46.9416 54.1154 47.0157 53.9366 47.0157 53.7501C47.0157 53.5636 46.9416 53.3848 46.8098 53.2529C46.6779 53.121 46.4991 53.047 46.3126 53.047Z" fill="white"/>
<path d="M61.6653 21.7227C61.6013 21.6254 61.5141 21.5456 61.4117 21.4904C61.3092 21.4352 61.1946 21.4063 61.0782 21.4063H51.2345C51.0969 21.4062 50.9623 21.4466 50.8475 21.5223C50.7326 21.5981 50.6425 21.7059 50.5884 21.8323L45.8715 32.8381C44.3022 32.5901 42.7032 32.5956 41.1357 32.8545L36.4118 21.8323C36.3577 21.7059 36.2676 21.5981 36.1527 21.5223C36.0379 21.4466 35.9033 21.4062 35.7657 21.4063H25.922C25.8056 21.4063 25.6911 21.4352 25.5887 21.4903C25.4862 21.5455 25.3991 21.6253 25.3351 21.7224C25.271 21.8195 25.2321 21.9311 25.2218 22.0469C25.2114 22.1628 25.23 22.2795 25.2759 22.3864L31.924 37.8894C29.9496 40.12 28.6615 42.8734 28.2144 45.8185C27.7674 48.7637 28.1804 51.7753 29.4039 54.4913C30.6275 57.2073 32.6094 59.5121 35.1114 61.1288C37.6135 62.7454 40.5292 63.605 43.5081 63.6042C46.487 63.6034 49.4023 62.7423 51.9035 61.1244C54.4047 59.5064 56.3854 57.2006 57.6075 54.4839C58.8296 51.7673 59.2411 48.7554 58.7925 45.8105C58.3439 42.8656 57.0544 40.1129 55.0788 37.8834L61.7243 22.3865C61.7703 22.2796 61.7889 22.163 61.7786 22.0471C61.7683 21.9313 61.7294 21.8198 61.6653 21.7227ZM51.698 22.8125H55.7931L50.7919 34.4778C50.3928 34.2644 49.982 34.0733 49.5644 33.8959C49.5339 33.8828 49.5034 33.8697 49.473 33.8568C49.2783 33.7756 49.0825 33.6975 48.8842 33.6243C48.79 33.5892 48.6944 33.5571 48.5995 33.5238C48.4412 33.4689 48.2839 33.4123 48.1235 33.3621C47.8579 33.2787 47.5892 33.2026 47.3174 33.1336C47.3047 33.1304 47.2925 33.1261 47.2797 33.1229L51.698 22.8125ZM35.3022 22.8125L39.7208 33.1232C39.6538 33.1399 39.5888 33.1619 39.5221 33.1794C39.4 33.2116 39.2796 33.2474 39.1587 33.2825C38.9159 33.3528 38.6755 33.4289 38.4376 33.5108C38.3169 33.5525 38.1962 33.5937 38.0768 33.6382C37.821 33.7334 37.5693 33.8368 37.3197 33.9453C37.23 33.9842 37.1387 34.0195 37.0499 34.0602C36.7648 34.1905 36.4843 34.3297 36.2083 34.4777L31.2071 22.8125H35.3022ZM26.9887 22.8125H29.6772L34.9888 35.2016C34.9273 35.2421 34.8698 35.289 34.8089 35.3305C34.6057 35.4691 34.4057 35.6125 34.2089 35.7608C34.1034 35.8404 33.9987 35.9199 33.8953 36.0022C33.6882 36.1672 33.4861 36.3393 33.2869 36.5155C33.2073 36.5858 33.1251 36.6532 33.0471 36.7254C33.0251 36.7456 33.0018 36.7638 32.98 36.7842L26.9887 22.8125ZM57.5626 48.125C57.5631 50.4195 57.0022 52.6792 55.9288 54.7071C54.8554 56.7349 53.3021 58.4694 51.4044 59.759C49.5067 61.0487 47.3223 61.8545 45.0417 62.106C42.761 62.3575 40.4535 62.0472 38.3204 61.2021C36.1872 60.3569 34.2933 59.0027 32.8038 57.2575C31.3142 55.5122 30.2744 53.4291 29.7749 51.1896C29.2754 48.9502 29.3314 46.6226 29.9381 44.4098C30.5448 42.197 31.6838 40.1663 33.2556 38.4948C33.5099 38.2232 33.7731 37.9631 34.0454 37.7143C36.6332 35.3638 40.0041 34.0618 43.5001 34.0625C44.4233 34.0633 45.3441 34.155 46.2493 34.3362C46.3632 34.3588 46.4743 34.3895 46.5872 34.4148C46.9053 34.4863 47.2207 34.5651 47.5303 34.6579C47.6378 34.6898 47.7442 34.7249 47.8507 34.7594C48.1963 34.8719 48.5374 34.9951 48.8706 35.1334C48.9199 35.1537 48.9696 35.1726 49.0183 35.1934C50.2421 35.7178 51.3854 36.413 52.414 37.2583C52.4355 37.2761 52.4566 37.2946 52.478 37.3124C52.7799 37.5635 53.0691 37.829 53.3488 38.104C53.4 38.1545 53.4518 38.2041 53.5023 38.2555C56.1045 40.881 57.5639 44.4284 57.5626 48.125ZM54.0202 36.7844C53.3947 36.2039 52.7219 35.6765 52.0088 35.2077L57.323 22.8125H60.0115L54.0202 36.7844Z" fill="white"/>
</svg>
