<svg width="86" height="86" viewBox="0 0 86 86" fill="none" xmlns="http://www.w3.org/2000/svg">
<circle cx="43" cy="43" r="36" fill="#EFAC00"/>
<path d="M43.0001 7.16675C23.2416 7.16675 7.16675 23.2416 7.16675 43.0001C7.16675 62.7586 23.2416 78.8334 43.0001 78.8334C62.7586 78.8334 78.8334 62.7586 78.8334 43.0001C78.8334 23.2416 62.7586 7.16675 43.0001 7.16675ZM43.0001 71.6667C27.194 71.6667 14.3334 58.8062 14.3334 43.0001C14.3334 27.194 27.194 14.3334 43.0001 14.3334C58.8062 14.3334 71.6667 27.194 71.6667 43.0001C71.6667 58.8062 58.8062 71.6667 43.0001 71.6667Z" fill="#EFAC00"/>
<path d="M57.5442 60.4233H49.2877L35.7242 46.8596L39.4342 43.1499C41.7032 44.7891 44.4206 45.6747 47.2747 45.6747C50.8604 45.6747 54.2315 44.2784 56.767 41.743C56.9669 41.5429 57.0791 41.2718 57.0791 40.9894C57.0791 40.7071 56.9669 40.436 56.767 40.2363L48.7812 32.25L51.0423 29.989C51.4952 30.2157 52.0054 30.3445 52.5454 30.3445C54.4012 30.3445 55.9106 28.8347 55.9106 26.9793C55.9106 25.1235 54.4012 23.614 52.5454 23.614C50.69 23.614 49.1802 25.1235 49.1802 26.9793C49.1802 27.5192 49.3087 28.0293 49.5357 28.4823L47.2746 30.7433L39.2885 22.7575C39.0888 22.5577 38.8178 22.4456 38.5352 22.4456C38.2526 22.4456 37.9817 22.5577 37.7819 22.7575C35.2464 25.293 33.8501 28.6641 33.8501 32.25C33.8501 34.7265 34.5165 37.1007 35.7639 39.1679L30.576 44.3559C29.8517 44.9048 29.3829 45.7742 29.3829 46.7507C29.3829 48.0126 30.1651 49.0946 31.2697 49.5388L36.3248 60.4231H29.4561C28.8676 60.4231 28.3906 60.9 28.3906 61.4885C28.3906 62.0769 28.8676 62.5538 29.4561 62.5538H37.9876C37.9901 62.5538 37.9924 62.5541 37.9949 62.5541C37.9981 62.5541 38.0014 62.5538 38.0047 62.5538H57.5442C58.1327 62.5538 58.6096 62.0769 58.6096 61.4885C58.6096 60.9 58.1327 60.4233 57.5442 60.4233ZM52.5454 25.7445C53.2262 25.7445 53.7801 26.2986 53.7801 26.9792C53.7801 27.6598 53.2262 28.2136 52.5454 28.2136C51.8646 28.2136 51.311 27.6598 51.311 26.9792C51.311 26.2986 51.8646 25.7445 52.5454 25.7445ZM38.5701 25.0524L46.5207 33.0029C46.5209 33.0032 46.521 33.0032 46.5212 33.0035C46.5213 33.0035 46.5214 33.0035 46.5217 33.0039L54.4722 40.9546C52.4517 42.6313 49.9333 43.5438 47.2747 43.5438C44.2579 43.5438 41.4217 42.3691 39.2885 40.2358C37.1554 38.1028 35.9808 35.2667 35.9808 32.2499C35.9808 29.5913 36.8933 27.073 38.5701 25.0524ZM37.0252 40.9202C37.2651 41.2029 37.517 41.4776 37.782 41.7425C37.7897 41.7502 37.7975 41.7576 37.8052 41.7652L34.7157 44.8548C34.4711 44.5552 34.1703 44.3034 33.829 44.1159L37.0252 40.9202ZM32.3872 47.6245C31.9056 47.6245 31.5136 47.2327 31.5136 46.7509C31.5136 46.2694 31.9056 45.8773 32.3872 45.8773C32.8689 45.8773 33.2609 46.2695 33.2609 46.7509C33.2609 47.2327 32.8689 47.6245 32.3872 47.6245ZM38.6741 60.4233L33.6003 49.4987C33.9886 49.3264 34.3341 49.075 34.6153 48.7639L46.2743 60.4233H38.6741Z" fill="white"/>
</svg>
