<svg width="86" height="86" viewBox="0 0 86 86" fill="none" xmlns="http://www.w3.org/2000/svg">
<circle cx="43" cy="43" r="36" fill="#EFAC00"/>
<path d="M43 7.16675C23.2415 7.16675 7.16663 23.2416 7.16663 43.0001C7.16663 62.7586 23.2415 78.8334 43 78.8334C62.7585 78.8334 78.8333 62.7586 78.8333 43.0001C78.8333 23.2416 62.7585 7.16675 43 7.16675ZM43 71.6667C27.1939 71.6667 14.3333 58.8062 14.3333 43.0001C14.3333 27.194 27.1939 14.3334 43 14.3334C58.806 14.3334 71.6666 27.194 71.6666 43.0001C71.6666 58.8062 58.806 71.6667 43 71.6667Z" fill="#EFAC00"/>
<path d="M27.74 66H27.54C24.94 65.78 22.82 63.36 21.26 61.59L20.78 61L20.38 60.58C19.61 59.78 18.66 58.79 19.12 57.25C19.5165 56.3152 20.2227 55.5454 21.12 55.07C21.8024 54.6046 22.6144 54.3666 23.44 54.39C24.36 54.64 27.21 57.21 27.77 57.73C30.1 59.85 31.36 61.29 31.52 62.01C31.5632 62.1782 31.559 62.355 31.5078 62.521C31.4566 62.6869 31.3605 62.8354 31.23 62.95C30.9331 63.2528 30.6715 63.5883 30.45 63.95C29.87 64.84 29.09 66 27.74 66ZM23.06 55.92C22.53 56.01 20.85 56.87 20.6 57.72C20.41 58.34 20.69 58.72 21.49 59.54L21.93 60L22.42 60.56C23.8 62.14 25.69 64.29 27.67 64.46C28.2 64.46 28.59 63.98 29.16 63.12C29.3787 62.7718 29.6192 62.4378 29.88 62.12C27.854 59.7967 25.5653 57.7161 23.06 55.92Z" fill="white"/>
<path d="M24.7599 56.17C24.6567 56.17 24.5545 56.1487 24.4599 56.1074C24.3653 56.0661 24.2802 56.0057 24.2099 55.93C24.1383 55.8585 24.0814 55.7736 24.0426 55.68C24.0039 55.5865 23.9839 55.4863 23.9839 55.385C23.9839 55.2838 24.0039 55.1835 24.0426 55.09C24.0814 54.9965 24.1383 54.9115 24.2099 54.84L25.2099 53.9C26.4041 52.8868 27.5021 51.7653 28.4899 50.55C28.8694 48.2783 29.8894 46.1621 31.4299 44.45C33.1459 42.8522 35.3604 41.8951 37.6999 41.74L38.4199 41.66C39.0781 41.6132 39.7288 41.4925 40.3599 41.3C41.033 41.0065 41.665 40.6267 42.2399 40.17C42.4899 39.98 42.7599 39.8 43.0199 39.62C43.4623 39.3303 43.975 39.166 44.5033 39.1449C45.0317 39.1238 45.5559 39.2465 46.0199 39.5C46.4873 39.725 46.8789 40.0813 47.1471 40.5253C47.4152 40.9692 47.5483 41.4817 47.5299 42C47.5221 42.9892 47.1481 43.9405 46.4799 44.67C45.7007 45.3987 44.7627 45.9362 43.7399 46.24C43.1857 46.4265 42.6501 46.6642 42.1399 46.95C40.2799 48.09 40.0799 48.36 38.4599 50.44C38.3943 50.5195 38.3136 50.5852 38.2225 50.6335C38.1315 50.6818 38.0318 50.7116 37.9292 50.7214C37.8266 50.7311 37.7231 50.7206 37.6245 50.6903C37.526 50.6601 37.4344 50.6107 37.3549 50.545C37.2755 50.4794 37.2098 50.3987 37.1615 50.3076C37.1132 50.2166 37.0833 50.1169 37.0736 50.0143C37.0638 49.9117 37.0744 49.8081 37.1047 49.7096C37.1349 49.6111 37.1843 49.5195 37.2499 49.44C38.2764 47.8438 39.6769 46.5222 41.3299 45.59C41.9205 45.2488 42.5435 44.9674 43.1899 44.75C43.9915 44.5216 44.7325 44.1186 45.3599 43.57C45.7673 43.1165 45.9949 42.5297 45.9999 41.92C46.005 41.6995 45.9476 41.482 45.8343 41.2927C45.7211 41.1033 45.5566 40.9499 45.3599 40.85C45.1428 40.7185 44.8938 40.649 44.6399 40.649C44.3861 40.649 44.1371 40.7185 43.9199 40.85C43.6799 41.01 43.4499 41.19 43.1899 41.37C42.5053 41.9077 41.752 42.3516 40.9499 42.69C40.1993 42.9397 39.4195 43.0909 38.6299 43.14L37.9499 43.21C33.2499 43.83 31.1799 45.83 30.0399 50.87C29.8799 51.59 28.7999 52.68 26.2999 54.98L25.2999 55.91C25.2315 55.9868 25.1486 56.0493 25.0559 56.094C24.9632 56.1386 24.8626 56.1644 24.7599 56.17Z" fill="white"/>
<path d="M30.78 61.39C30.6657 61.3895 30.5529 61.3643 30.4493 61.3159C30.3457 61.2676 30.2538 61.1973 30.18 61.11C30.1133 61.0304 30.0631 60.9382 30.0324 60.839C30.0018 60.7397 29.9912 60.6353 30.0015 60.5319C30.0117 60.4285 30.0425 60.3282 30.0921 60.2368C30.1416 60.1455 30.2089 60.065 30.29 60C32.8262 58.1583 35.5721 56.6243 38.47 55.43L39.77 54.82C40.97 54.26 42.21 53.82 43.41 53.33C45.57 52.5 47.61 51.72 48.62 50.69C49.1325 49.94 49.4739 49.0865 49.62 48.19C49.98 46.8 50.36 45.36 51.43 44.56C51.5952 44.4401 51.8008 44.3896 52.0027 44.4196C52.2046 44.4495 52.3868 44.5573 52.51 44.72C52.5707 44.8013 52.6147 44.8938 52.6395 44.9922C52.6643 45.0906 52.6694 45.1929 52.6545 45.2933C52.6397 45.3936 52.6051 45.4901 52.5529 45.577C52.5006 45.664 52.4317 45.7398 52.35 45.8C51.6829 46.5913 51.2531 47.555 51.11 48.58C50.9131 49.7424 50.4322 50.8382 49.71 51.77C48.46 53.04 46.27 53.88 43.95 54.77C42.77 55.22 41.56 55.68 40.42 56.22L39.1 56.83C36.324 57.9734 33.6925 59.4402 31.26 61.2C31.1243 61.3128 30.9562 61.3793 30.78 61.39Z" fill="white"/>
<path d="M33.2399 44.75C33.0818 44.7505 32.9274 44.7016 32.7984 44.6102C32.6693 44.5187 32.572 44.3893 32.5199 44.24C32.1288 43.0022 32.0077 41.6949 32.1647 40.4063C32.3216 39.1177 32.7531 37.8777 33.4299 36.77C34.7557 34.6119 36.5845 32.8071 38.7599 31.51C39.5199 31.02 40.3199 30.57 41.0899 30.13C42.5466 29.3733 43.9235 28.4721 45.1999 27.44C46.7899 26.05 48.2899 23.77 47.6999 21.5C47.6672 21.3656 47.6712 21.2248 47.7117 21.0925C47.7521 20.9602 47.8275 20.8412 47.9298 20.7481C48.0321 20.655 48.1576 20.5912 48.2932 20.5633C48.4287 20.5355 48.5692 20.5447 48.6999 20.59C60.0399 25.01 60.2099 25.22 60.4299 25.49C61.2999 26.6 61.3499 29.02 61.3399 29.73C61.3399 33.11 59.0599 36.11 55.0199 38.2C54.2999 38.57 53.4999 38.91 52.6499 39.28C50.6499 40.15 48.5099 41.05 47.3199 42.43C47.2545 42.5078 47.1744 42.572 47.084 42.6187C46.9937 42.6654 46.895 42.6938 46.7937 42.7021C46.6924 42.7105 46.5904 42.6987 46.4936 42.6674C46.3968 42.6362 46.3072 42.5861 46.2299 42.52C46.1528 42.4539 46.0895 42.3732 46.0437 42.2825C45.9979 42.1918 45.9705 42.093 45.963 41.9916C45.9556 41.8903 45.9683 41.7885 46.0004 41.6921C46.0324 41.5957 46.0833 41.5066 46.1499 41.43C47.5699 39.77 49.9399 38.76 52.0399 37.86C52.8599 37.51 53.6399 37.18 54.3199 36.86C56.3199 35.86 59.7599 33.49 59.7999 29.75C59.853 28.6619 59.6758 27.5749 59.2799 26.56C58.7899 26.29 56.5799 25.35 49.3399 22.56C49.2661 23.7405 48.9469 24.8927 48.4028 25.943C47.8588 26.9933 47.1017 27.9187 46.1799 28.66C44.8281 29.7625 43.3672 30.7242 41.8199 31.53C41.0699 31.96 40.2899 32.4 39.5599 32.87C37.5956 34.0352 35.9419 35.6579 34.7399 37.6C34.1796 38.5178 33.8187 39.5433 33.6809 40.6098C33.5431 41.6763 33.6313 42.7599 33.9399 43.79C33.9763 43.8864 33.993 43.9891 33.9889 44.0921C33.9849 44.195 33.9602 44.2961 33.9164 44.3894C33.8726 44.4826 33.8105 44.5661 33.7338 44.6349C33.6571 44.7037 33.5674 44.7565 33.4699 44.79C33.3917 44.7883 33.3142 44.7748 33.2399 44.75Z" fill="white"/>
<path d="M46.65 44.7399C46.456 44.7415 46.2685 44.6698 46.125 44.5392C45.9816 44.4085 45.8927 44.2285 45.8763 44.0351C45.8599 43.8418 45.9171 43.6493 46.0364 43.4963C46.1558 43.3433 46.3285 43.241 46.52 43.2099C51.75 42.2099 57.38 39.3799 59.91 36.3899C60.882 35.3429 61.7124 34.1729 62.38 32.9099C62.9365 31.6866 63.1508 30.3353 63 28.9999C62.6642 28.9635 62.3304 28.9101 62 28.8399C61.5357 28.7449 61.0638 28.6914 60.59 28.6799C60.3875 28.6747 60.1953 28.5898 60.0549 28.4438C59.9145 28.2978 59.8373 28.1024 59.84 27.8999C59.8452 27.6965 59.9297 27.5032 60.0754 27.3612C60.2211 27.2193 60.4166 27.1398 60.62 27.1399C61.1781 27.1507 61.7339 27.2143 62.28 27.3299C62.7402 27.4294 63.2092 27.483 63.68 27.4899C63.8582 27.4934 64.0298 27.5579 64.1662 27.6725C64.3027 27.7871 64.3958 27.945 64.43 28.1199C64.7756 29.9556 64.5414 31.8533 63.76 33.5499C63.0466 34.9465 62.1448 36.2385 61.08 37.3899C58.3 40.6699 52.42 43.6899 46.79 44.7299L46.65 44.7399Z" fill="white"/>
<path d="M43.66 47.11C42.992 47.1128 42.3244 47.0794 41.66 47.01C41.4614 46.9824 41.2814 46.8784 41.1583 46.72C41.0351 46.5617 40.9787 46.3617 41.0008 46.1623C41.023 45.963 41.122 45.7802 41.2768 45.6528C41.4317 45.5254 41.6302 45.4634 41.83 45.48C45.2293 45.6812 48.6385 45.3197 51.92 44.41C55.44 43.51 58.55 42.25 60.03 41.1C62.5439 39.0455 64.4348 36.3304 65.49 33.26L64.59 33C64.22 32.88 63.84 32.75 63.53 32.63C63.4352 32.5935 63.3486 32.5387 63.2752 32.4686C63.2017 32.3985 63.1428 32.3145 63.1019 32.2216C63.061 32.1286 63.0389 32.0285 63.0369 31.927C63.0348 31.8255 63.0529 31.7245 63.09 31.63C63.1659 31.4403 63.3131 31.288 63.5001 31.2057C63.6871 31.1234 63.8989 31.1178 64.09 31.19C64.36 31.3 64.73 31.42 65.09 31.54C66.38 31.97 66.84 32.14 67.09 32.54C67.21 32.78 67.26 33.04 66.87 34.15C66.5872 34.9572 66.2532 35.7454 65.87 36.51C64.6693 38.7649 63.0105 40.7439 61 42.32C57.92 44.67 49.75 47.11 43.66 47.11Z" fill="white"/>
<path d="M36.24 42.9299H36.07C35.8707 42.8845 35.6973 42.7626 35.5869 42.5906C35.4766 42.4185 35.4382 42.21 35.48 42.0099C35.53 41.7799 36.75 36.2899 40.17 34.1299L41.83 33.1299C44.2047 31.7881 46.4218 30.1848 48.44 28.3499C49.1381 27.3252 49.665 26.1938 50 24.9999C50.0357 24.8963 50.0922 24.8011 50.1662 24.7203C50.2402 24.6395 50.33 24.5747 50.43 24.5299C50.5301 24.4827 50.6393 24.4583 50.75 24.4583C50.8606 24.4583 50.9699 24.4827 51.07 24.5299L57.29 27.5299C57.4603 27.6105 57.5929 27.7539 57.66 27.9299C58.1142 29.0747 58.174 30.3382 57.8299 31.5208C57.4858 32.7034 56.7575 33.7375 55.76 34.4599C54.5146 35.323 53.1924 36.0695 51.81 36.6899C49.45 37.8399 47.23 38.9299 46.67 40.5999C46.6386 40.6992 46.5873 40.791 46.5194 40.8699C46.4515 40.9487 46.3682 41.013 46.2748 41.0588C46.1813 41.1046 46.0795 41.131 45.9756 41.1363C45.8716 41.1417 45.7677 41.1259 45.67 41.0899C45.5716 41.0573 45.4807 41.0054 45.4025 40.9372C45.3244 40.869 45.2607 40.7859 45.2151 40.6928C45.1695 40.5997 45.1429 40.4984 45.1368 40.3949C45.1308 40.2914 45.1455 40.1877 45.18 40.0899C45.94 37.8099 48.56 36.5299 51.1 35.2899C52.3969 34.7062 53.6386 34.0067 54.81 33.1999C55.3072 32.8534 55.7164 32.3953 56.0047 31.8621C56.2929 31.329 56.4523 30.7358 56.47 30.1299C56.4837 29.6673 56.4263 29.2052 56.3 28.7599L51.16 26.2999C50.8071 27.4439 50.2441 28.5121 49.5 29.4499C47.4072 31.3676 45.1062 33.0447 42.64 34.4499L40.99 35.4499C38.12 37.2699 36.99 42.2999 36.99 42.3599C36.9457 42.5246 36.8481 42.6699 36.7123 42.773C36.5766 42.8762 36.4105 42.9314 36.24 42.9299Z" fill="white"/>
<path d="M45 37.44C44.6563 37.4716 44.3105 37.407 44.0015 37.2534C43.6924 37.0997 43.4322 36.8631 43.25 36.57C43.159 36.3883 43.1059 36.19 43.0938 35.9872C43.0818 35.7843 43.1111 35.5812 43.18 35.39C43.6062 34.4463 44.3746 33.6994 45.33 33.3C47.06 32.45 48.7 32.58 49.23 33.6C49.3235 33.7827 49.378 33.9828 49.3901 34.1876C49.4021 34.3925 49.3714 34.5976 49.3 34.79C48.8737 35.7337 48.1054 36.4806 47.15 36.88C46.4836 37.2236 45.7493 37.4149 45 37.44ZM44.65 35.86C45.2799 35.9487 45.9213 35.8218 46.47 35.5C47.0425 35.2698 47.5213 34.8543 47.83 34.32C47.2117 34.2777 46.5931 34.3976 46.0354 34.6677C45.4777 34.9377 45.0001 35.3487 44.65 35.86Z" fill="white"/>
</svg>
