<svg width="86" height="86" viewBox="0 0 86 86" fill="none" xmlns="http://www.w3.org/2000/svg">
<circle cx="43" cy="43" r="36" fill="#EFAC00"/>
<path d="M43.0001 7.16675C23.2416 7.16675 7.16675 23.2416 7.16675 43.0001C7.16675 62.7586 23.2416 78.8334 43.0001 78.8334C62.7586 78.8334 78.8334 62.7586 78.8334 43.0001C78.8334 23.2416 62.7586 7.16675 43.0001 7.16675ZM43.0001 71.6667C27.194 71.6667 14.3334 58.8062 14.3334 43.0001C14.3334 27.194 27.194 14.3334 43.0001 14.3334C58.8062 14.3334 71.6667 27.194 71.6667 43.0001C71.6667 58.8062 58.8062 71.6667 43.0001 71.6667Z" fill="#EFAC00"/>
<path fill-rule="evenodd" clip-rule="evenodd" d="M52.375 53.6C52.03 53.6 51.75 53.8763 51.75 54.2167V55.45C51.75 55.7904 52.03 56.0667 52.375 56.0667C52.72 56.0667 53 55.7904 53 55.45V54.2167C53 53.8763 52.72 53.6 52.375 53.6ZM53 46.8167C53 46.4763 52.72 46.2 52.375 46.2C52.03 46.2 51.75 46.4763 51.75 46.8167V51.75C51.75 52.0904 52.03 52.3667 52.375 52.3667C52.72 52.3667 53 52.0904 53 51.75V46.8167ZM56.75 40.0333H29.25C28.5606 40.0333 28 40.5865 28 41.2667V43.7333C28 44.4135 28.5606 44.9667 29.25 44.9667V57.9167C29.25 59.6168 30.6519 61 32.375 61H53.625C55.3481 61 56.75 59.6168 56.75 57.9167V46.8167C56.75 46.4763 56.47 46.2 56.125 46.2C55.78 46.2 55.5 46.4763 55.5 46.8167V57.9167C55.5 58.9366 54.6588 59.7667 53.625 59.7667H32.375C31.3412 59.7667 30.5 58.9366 30.5 57.9167V44.35C30.5 44.0096 30.22 43.7333 29.875 43.7333H29.25V41.2667H56.75V43.7333H32.375C32.03 43.7333 31.75 44.0096 31.75 44.35C31.75 44.6904 32.03 44.9667 32.375 44.9667H56.75C57.4394 44.9667 58 44.4135 58 43.7333V41.2667C58 40.5865 57.4394 40.0333 56.75 40.0333ZM41.75 34.154V38.1833C41.75 38.5237 42.03 38.8 42.375 38.8C42.72 38.8 43 38.5237 43 38.1833V33.8667C43 33.673 42.9063 33.4893 42.7494 33.3727C42.1144 32.9016 41.75 32.1826 41.75 31.4C41.75 29.8485 43.2631 27.2165 44.25 25.7162C45.2369 27.2165 46.75 29.8485 46.75 31.4C46.75 32.5723 45.9062 33.5892 44.7444 33.8186C44.4056 33.8852 44.1856 34.2101 44.2537 34.5438C44.3213 34.878 44.6506 35.0926 44.9888 35.0279C46.7337 34.6844 48 33.1587 48 31.4C48 28.7662 44.8906 24.4409 44.7587 24.2584C44.5238 23.934 43.9763 23.934 43.7413 24.2584C43.6094 24.4409 40.5 28.7662 40.5 31.4C40.5 32.457 40.9431 33.4375 41.75 34.154ZM29.875 38.8H31.125C31.47 38.8 31.75 38.5237 31.75 38.1833C31.75 37.8429 31.47 37.5667 31.125 37.5667H30.5V36.3333H33.625C33.97 36.3333 34.25 36.0571 34.25 35.7167C34.25 35.3763 33.97 35.1 33.625 35.1H30.5V33.8667H31.125C31.47 33.8667 31.75 33.5904 31.75 33.25C31.75 32.9096 31.47 32.6333 31.125 32.6333H30.5V31.4H31.125C31.47 31.4 31.75 31.1237 31.75 30.7833C31.75 30.4429 31.47 30.1667 31.125 30.1667H30.5V28.9333H33.625C33.97 28.9333 34.25 28.6571 34.25 28.3167C34.25 27.9763 33.97 27.7 33.625 27.7H30.5V25.2333H38V38.1833C38 38.5237 38.28 38.8 38.625 38.8C38.97 38.8 39.25 38.5237 39.25 38.1833V24.6167C39.25 24.2763 38.97 24 38.625 24H29.875C29.53 24 29.25 24.2763 29.25 24.6167V38.1833C29.25 38.5237 29.53 38.8 29.875 38.8ZM52.375 32.0167V38.1833C52.375 38.5237 52.655 38.8 53 38.8C53.345 38.8 53.625 38.5237 53.625 38.1833V32.0167C53.625 31.6763 53.345 31.4 53 31.4C52.655 31.4 52.375 31.6763 52.375 32.0167ZM56.125 31.4C55.78 31.4 55.5 31.6763 55.5 32.0167V38.1833C55.5 38.5237 55.78 38.8 56.125 38.8C56.47 38.8 56.75 38.5237 56.75 38.1833V32.0167C56.75 31.6763 56.47 31.4 56.125 31.4ZM49.875 38.8C50.22 38.8 50.5 38.5237 50.5 38.1833V29.727L53 25.7803L54.9975 28.9333H52.375C52.03 28.9333 51.75 29.2096 51.75 29.55C51.75 29.8904 52.03 30.1667 52.375 30.1667H56.125C56.3525 30.1667 56.5613 30.0452 56.6719 29.8491C56.7819 29.653 56.7756 29.4131 56.655 29.2232L53.53 24.2898C53.3013 23.9291 52.6987 23.9291 52.47 24.2898L49.345 29.2232C49.2831 29.3212 49.25 29.4341 49.25 29.55V38.1833C49.25 38.5237 49.53 38.8 49.875 38.8ZM46.75 36.3333V38.1833C46.75 38.5237 46.47 38.8 46.125 38.8C45.78 38.8 45.5 38.5237 45.5 38.1833V36.3333C45.5 35.9929 45.78 35.7167 46.125 35.7167C46.47 35.7167 46.75 35.9929 46.75 36.3333Z" fill="white"/>
</svg>
