<svg width="86" height="86" viewBox="0 0 86 86" fill="none" xmlns="http://www.w3.org/2000/svg">
<circle cx="43" cy="43" r="36" fill="#EFAC00"/>
<path d="M43.0001 7.16675C23.2416 7.16675 7.16675 23.2416 7.16675 43.0001C7.16675 62.7586 23.2416 78.8334 43.0001 78.8334C62.7586 78.8334 78.8334 62.7586 78.8334 43.0001C78.8334 23.2416 62.7586 7.16675 43.0001 7.16675ZM43.0001 71.6667C27.194 71.6667 14.3334 58.8062 14.3334 43.0001C14.3334 27.194 27.194 14.3334 43.0001 14.3334C58.8062 14.3334 71.6667 27.194 71.6667 43.0001C71.6667 58.8062 58.8062 71.6667 43.0001 71.6667Z" fill="#EFAC00"/>
<path d="M56 38.3333V32.5C56 25.6667 50.3333 20 43.5 20C36.6667 20 31 25.6667 31 32.5V38.3334C28.1666 38.3334 26 40.5 26 43.3334V51.6668C26 59.0001 32 65.0001 39.3333 65.0001H47.6667C55 65.0001 61 59.0001 61 51.6668V43.3333C61 40.6667 58.8334 38.3333 56 38.3333ZM32.6667 32.5C32.6667 26.5 37.5 21.6668 43.5 21.6668C49.5 21.6668 54.3332 26.5 54.3332 32.5V38.3334H52.6666V32.5C52.6666 27.5 48.5 23.3333 43.4999 23.3333C38.4998 23.3333 34.3333 27.5 34.3333 32.5V38.3334H32.6667V32.5ZM51 32.5V38.3334H36V32.5C36 28.3334 39.3333 25.0001 43.5 25.0001C47.6666 25.0001 51 28.3333 51 32.5ZM59.3333 51.6667C59.3333 58.1667 54.1667 63.3333 47.6667 63.3333H39.3333C32.8334 63.3333 27.6667 58.1667 27.6667 51.6667V43.3333C27.6667 41.5 29.1666 40 31 40H56C57.8333 40 59.3333 41.5 59.3333 43.3333V51.6667Z" fill="white"/>
<path d="M43.5001 45C41.1668 45 39.3335 46.8333 39.3335 49.1666C39.3335 50.5 40.0002 51.6667 41.0002 52.5V55.8333C41.0002 57.1666 42.1669 58.3333 43.5002 58.3333C44.8335 58.3333 46.0002 57.1666 46.0002 55.8333V52.5C47.0002 51.6667 47.6669 50.5 47.6669 49.1666C47.6667 46.8333 45.8334 45 43.5001 45ZM44.3334 51.5V55.8334C44.3334 56.3333 44.0001 56.6667 43.5001 56.6667C43.0002 56.6667 42.6668 56.3333 42.6668 55.8334V51.5C41.6668 51.1667 41.0002 50.1666 41.0002 49.1667C41.0002 47.8334 42.1669 46.6667 43.5002 46.6667C44.8335 46.6667 46.0002 47.8334 46.0002 49.1667C46.0001 50.3333 45.3334 51.1667 44.3334 51.5Z" fill="white"/>
</svg>
