<svg width="40" height="40" viewBox="0 0 40 40" fill="none" xmlns="http://www.w3.org/2000/svg">
<path d="M25.8915 4.67999C24.6315 3.41999 22.4382 3.41999 21.1782 4.67999L4.67986 21.1783C4.05536 21.8036 3.70459 22.6512 3.70459 23.535C3.70459 24.4187 4.05536 25.2663 4.67986 25.8916L14.1082 35.32C14.7382 35.95 15.5749 36.2966 16.4649 36.2966C17.3549 36.2966 18.1915 35.95 18.8215 35.32L35.3199 18.8217C35.9499 18.1917 36.2965 17.355 36.2965 16.465C36.2965 15.575 35.9499 14.7383 35.3199 14.1083L25.8915 4.67999ZM16.4649 32.9633V34.63V32.9633L7.03652 23.535L23.5349 7.03665L32.9632 16.465L16.4649 32.9633Z" fill="white"/>
<path d="M15.0002 26.6667C15.9206 26.6667 16.6668 25.9205 16.6668 25C16.6668 24.0795 15.9206 23.3333 15.0002 23.3333C14.0797 23.3333 13.3335 24.0795 13.3335 25C13.3335 25.9205 14.0797 26.6667 15.0002 26.6667Z" fill="white"/>
<path d="M26.1784 36.1783L23.8218 33.8217L33.8218 23.8217L36.1784 26.18L26.1784 36.1783ZM13.8218 3.82166L16.1784 6.17832L6.17844 16.1783L3.82178 13.82L13.8218 3.82166Z" fill="white"/>
</svg>
