<svg width="42" height="30" viewBox="0 0 42 30" fill="none" xmlns="http://www.w3.org/2000/svg">
<path d="M40.9854 5.00623C40.7481 4.12581 40.2843 3.3229 39.6403 2.67741C38.9963 2.03191 38.1944 1.56635 37.3145 1.32706C34.052 0.431225 21 0.416642 21 0.416642C21 0.416642 7.94996 0.402058 4.68537 1.25831C3.80605 1.50861 3.00583 1.98076 2.36155 2.62942C1.71727 3.27808 1.25055 4.08148 1.0062 4.96248C0.145788 8.22498 0.137454 14.9916 0.137454 14.9916C0.137454 14.9916 0.129121 21.7916 0.983288 25.0208C1.46245 26.8062 2.86871 28.2166 4.65621 28.6979C7.95204 29.5937 20.9687 29.6083 20.9687 29.6083C20.9687 29.6083 34.0208 29.6229 37.2833 28.7687C38.1635 28.5299 38.9661 28.0654 39.6117 27.4212C40.2574 26.777 40.7237 25.9755 40.9645 25.0958C41.827 21.8354 41.8333 15.0708 41.8333 15.0708C41.8333 15.0708 41.875 8.26873 40.9854 5.00623ZM16.825 21.2604L16.8354 8.76039L27.6833 15.0208L16.825 21.2604Z" fill="white"/>
</svg>
